<svg xmlns="http://www.w3.org/2000/svg" viewBox="0 0 256 256">
  <defs>
    <linearGradient id="g" x1="0" x2="1" y1="0" y2="1">
      <stop offset="0" stop-color="#7C3AED"/>
      <stop offset="1" stop-color="#2563EB"/>
    </linearGradient>
  </defs>
  <rect width="256" height="256" rx="56" fill="#0B1020"/>
  <path d="M70 82c34-24 82-24 116 0 13 24 20 49 20 75-18 18-38 29-60 34l-13-17c9-2 18-6 26-11-31 14-63 14-94 0 8 5 17 9 26 11l-13 17c-22-5-42-16-60-34 0-26 7-51 20-75 10-7 21-12 32-16l8 15c-3 1-6 2-8 3z" fill="url(#g)"/>
  <circle cx="98" cy="126" r="13" fill="#F8FAFC"/>
  <circle cx="158" cy="126" r="13" fill="#F8FAFC"/>
  <path d="M128 43v25M116 55h24M49 58l18 18M207 58l-18 18" stroke="#A78BFA" stroke-width="10" stroke-linecap="round"/>
</svg>
